<?xml version="1.0" standalone="no"?>
<!DOCTYPE svg PUBLIC "-//W3C//DTD SVG 20010904//EN"
 "http://www.w3.org/TR/2001/REC-SVG-20010904/DTD/svg10.dtd">
<svg version="1.0" xmlns="http://www.w3.org/2000/svg"
 width="894.000000pt" height="1138.000000pt" viewBox="0 0 894.000000 1138.000000"
 preserveAspectRatio="xMidYMid meet">

<g transform="translate(0.000000,1138.000000) scale(0.100000,-0.100000)"
fill="#000000" stroke="none">
<path d="M3745 11274 c-294 -62 -507 -258 -587 -541 -26 -92 -30 -256 -9 -343
64 -264 313 -498 573 -540 35 -5 134 -9 219 -8 182 2 215 -7 282 -82 62 -69
88 -153 94 -300 2 -63 0 -135 -4 -160 l-8 -45 -125 -12 c-925 -91 -1668 -686
-1976 -1583 -241 -702 -143 -1517 254 -2115 85 -128 213 -287 281 -348 22 -20
41 -39 41 -41 0 -2 -38 -27 -85 -55 -267 -164 -496 -403 -590 -615 -76 -172
-103 -373 -70 -522 59 -269 285 -521 628 -700 60 -31 107 -57 105 -59 -2 -2
-50 -24 -107 -49 -501 -222 -817 -583 -923 -1057 -30 -136 -33 -422 -6 -534
68 -278 201 -506 424 -729 320 -319 792 -543 1375 -650 310 -57 470 -70 909
-70 398 0 520 6 795 40 321 40 625 106 886 194 782 264 1282 735 1443 1360 43
167 51 236 51 445 0 172 -4 215 -24 304 -59 269 -160 453 -355 647 -215 214
-505 369 -896 478 -421 118 -809 156 -1765 171 -477 7 -801 15 -865 20 -30 2
-93 7 -140 10 -443 32 -693 144 -794 355 -27 57 -31 76 -31 151 0 78 3 91 37
160 21 40 56 96 80 123 57 66 170 155 263 206 l77 43 37 -22 c96 -59 331 -165
452 -205 895 -297 1850 -64 2497 608 529 551 763 1316 631 2066 -67 383 -245
766 -502 1085 -85 104 -301 315 -402 392 -255 192 -545 340 -830 422 -96 28
-315 71 -358 71 -20 0 -38 4 -42 9 -3 6 3 61 14 123 34 200 46 348 46 583 -1
256 -15 380 -65 572 -106 401 -353 669 -679 739 -61 13 -209 17 -256 8z m920
-2799 c692 -99 1233 -610 1377 -1302 19 -90 22 -141 23 -308 0 -173 -3 -216
-24 -315 -90 -435 -334 -800 -695 -1042 -302 -202 -676 -300 -1025 -269 -241
22 -390 64 -606 171 -448 222 -758 627 -867 1130 -30 142 -33 484 -4 625 139
690 683 1209 1370 1310 123 17 329 18 451 0z m-1164 -5479 c206 -29 591 -49
1274 -66 503 -13 691 -24 910 -56 254 -36 426 -83 592 -160 314 -145 476 -370
476 -659 0 -190 -73 -348 -234 -507 -278 -273 -770 -456 -1439 -535 -183 -22
-854 -25 -1020 -5 -444 53 -759 140 -997 275 -194 110 -340 258 -409 414 -56
126 -71 302 -39 452 65 305 313 603 677 814 45 26 87 47 93 47 6 0 58 -6 116
-14z"/>
<path d="M4330 7326 c-133 -37 -246 -134 -308 -263 -37 -77 -37 -79 -37 -203
0 -125 0 -125 39 -205 101 -206 315 -311 538 -264 189 40 343 207 371 403 34
235 -114 463 -342 530 -65 19 -196 20 -261 2z"/>
</g>
</svg>
